<svg xmlns="http://www.w3.org/2000/svg" width="840" height="100" viewBox="0 0 840 100"><rect width="100%" height="100%" fill="#DDDDDD"/><path fill="#999999" d="M320.5 63.655q1.52 0 2.67-.44t1.94-1.22q.79-.77 1.19-1.85.4-1.07.4-2.32 0-2.98-1.65-4.5-1.65-1.53-4.55-1.53t-4.55 1.53q-1.65 1.52-1.65 4.5 0 1.25.4 2.32.4 1.08 1.19 1.85.78.78 1.93 1.22 1.15.44 2.68.44Zm0-27.48q-1.38 0-2.38.42-1 .43-1.66 1.14-.66.71-.97 1.64-.32.92-.32 1.95 0 1.07.27 2.09.26 1.01.88 1.8.63.78 1.65 1.26 1.03.47 2.53.47 1.5 0 2.52-.47 1.03-.48 1.65-1.26.63-.79.89-1.8.26-1.02.26-2.09 0-1.03-.32-1.95-.33-.93-.98-1.64-.65-.71-1.65-1.14-1-.42-2.37-.42Zm6.1 13.05q3.3 1.07 4.87 3.29 1.58 2.21 1.58 5.41 0 2.4-.91 4.35-.92 1.95-2.57 3.32-1.65 1.38-3.96 2.13t-5.11.75q-2.8 0-5.11-.75-2.32-.75-3.97-2.13-1.65-1.37-2.56-3.32-.91-1.95-.91-4.35 0-3.2 1.57-5.41 1.58-2.22 4.88-3.29-2.63-1.1-3.94-3.13-1.31-2.02-1.31-4.87 0-2.05.84-3.83.83-1.77 2.33-3.08 1.5-1.32 3.59-2.05 2.09-.74 4.59-.74t4.59.74q2.08.73 3.58 2.05 1.5 1.31 2.34 3.08.84 1.78.84 3.83 0 2.85-1.31 4.87-1.32 2.03-3.94 3.13Zm15.2 5.22h11v-11.82q0-1.68.22-3.7l-11.22 15.52Zm16.37 0h4.55v3.58q0 .5-.32.86-.33.36-.93.36h-3.3v8.83h-5.37v-8.83h-15.25q-.63 0-1.1-.38-.48-.39-.6-.97l-.65-3.12 17.12-22.88h5.85v22.55Zm33.58-4.44q0 4.72-1.01 8.21-1.02 3.48-2.8 5.76-1.79 2.27-4.23 3.39-2.44 1.11-5.26 1.11-2.83 0-5.24-1.11-2.41-1.12-4.19-3.39-1.77-2.28-2.77-5.76-1-3.49-1-8.21 0-4.76 1-8.23 1-3.48 2.77-5.75 1.78-2.28 4.19-3.39 2.41-1.11 5.24-1.11 2.82 0 5.26 1.11t4.23 3.39q1.78 2.27 2.8 5.75 1.01 3.47 1.01 8.23Zm-6.38 0q0-3.93-.57-6.51-.58-2.57-1.54-4.1-.96-1.52-2.21-2.13-1.25-.62-2.6-.62-1.33 0-2.56.62-1.24.61-2.19 2.13-.95 1.53-1.51 4.1-.57 2.58-.57 6.51 0 3.92.57 6.49.56 2.58 1.51 4.1.95 1.53 2.19 2.14 1.23.61 2.56.61 1.35 0 2.6-.61t2.21-2.14q.96-1.52 1.54-4.1.57-2.57.57-6.49Zm46.08 9.79-3.28 3.23-8.47-8.48-8.55 8.53-3.28-3.22 8.55-8.58-8.15-8.15 3.25-3.25 8.15 8.15 8.1-8.1 3.3 3.25-8.12 8.12 8.5 8.5Zm34.22 3.65h6.5v4.63h-20v-4.63h7.33v-21.07q0-1.25.07-2.58l-5.2 4.35q-.45.35-.88.44-.44.09-.83.01-.39-.07-.69-.26-.3-.19-.45-.41l-1.95-2.68 11.03-9.37h5.07v31.57Zm37.38-13.44q0 4.72-1.01 8.21-1.01 3.48-2.8 5.76-1.79 2.27-4.23 3.39-2.44 1.11-5.26 1.11-2.83 0-5.24-1.11-2.41-1.12-4.19-3.39-1.77-2.28-2.77-5.76-1-3.49-1-8.21 0-4.76 1-8.23 1-3.48 2.77-5.75 1.78-2.28 4.19-3.39 2.41-1.11 5.24-1.11 2.82 0 5.26 1.11t4.23 3.39q1.79 2.27 2.8 5.75 1.01 3.47 1.01 8.23Zm-6.38 0q0-3.93-.57-6.51-.57-2.57-1.54-4.1-.96-1.52-2.21-2.13-1.25-.62-2.6-.62-1.33 0-2.56.62-1.24.61-2.19 2.13-.95 1.53-1.51 4.1-.57 2.58-.57 6.51 0 3.92.57 6.49.56 2.58 1.51 4.1.95 1.53 2.19 2.14 1.23.61 2.56.61 1.35 0 2.6-.61t2.21-2.14q.97-1.52 1.54-4.1.57-2.57.57-6.49Zm35.38 0q0 4.72-1.01 8.21-1.01 3.48-2.8 5.76-1.79 2.27-4.23 3.39-2.44 1.11-5.26 1.11-2.83 0-5.24-1.11-2.41-1.12-4.19-3.39-1.77-2.28-2.77-5.76-1-3.49-1-8.21 0-4.76 1-8.23 1-3.48 2.77-5.75 1.78-2.28 4.19-3.39 2.41-1.11 5.24-1.11 2.82 0 5.26 1.11t4.23 3.39q1.79 2.27 2.8 5.75 1.01 3.47 1.01 8.23Zm-6.38 0q0-3.93-.57-6.51-.57-2.57-1.54-4.1-.96-1.52-2.21-2.13-1.25-.62-2.6-.62-1.33 0-2.56.62-1.24.61-2.19 2.13-.95 1.53-1.51 4.1-.57 2.58-.57 6.51 0 3.92.57 6.49.56 2.58 1.51 4.1.95 1.53 2.19 2.14 1.23.61 2.56.61 1.35 0 2.6-.61t2.21-2.14q.97-1.52 1.54-4.1.57-2.57.57-6.49Z"/></svg>